o M_Banner
v 4.329062 0.996545 -2.675910
v 4.329062 1.014089 -2.675910
v 4.346606 1.014089 -2.675910
v 4.346606 0.996545 -2.675910
v 4.350599 0.974148 -2.548082
v 4.350599 0.999675 -2.548082
v 4.346025 1.013507 -2.420254
v 4.346025 0.997127 -2.420254
v 4.329644 1.013507 -2.420254
v 4.329644 0.997127 -2.420254
v 4.325069 0.982714 -2.548082
v 4.325069 1.007510 -2.548082
v 2.380644 0.996545 -4.412301
v 2.380644 1.014089 -4.412301
v 2.380644 1.014089 -4.429845
v 2.380644 0.996545 -4.429845
v 2.508473 0.974148 -4.433838
v 2.508473 0.999675 -4.433838
v 2.636301 1.013507 -4.429263
v 2.636301 0.997127 -4.429263
v 2.636301 1.013507 -4.412883
v 2.636301 0.997127 -4.412883
v 2.508473 0.982714 -4.408308
v 2.508473 1.007510 -4.408308
v -2.675908 0.996545 -4.412301
v -2.675908 1.014089 -4.412301
v -2.675908 1.014089 -4.429845
v -2.675908 0.996545 -4.429845
v -2.548080 0.974148 -4.433838
v -2.548080 0.999675 -4.433838
v -2.420252 1.013507 -4.429263
v -2.420252 0.997127 -4.429263
v -2.420252 1.013507 -4.412883
v -2.420252 0.997127 -4.412883
v -2.548080 0.982714 -4.408308
v -2.548080 1.007510 -4.408308
v -4.394750 0.996545 -2.380644
v -4.394750 1.014089 -2.380644
v -4.412294 1.014089 -2.380644
v -4.412294 0.996545 -2.380644
v -4.416288 0.974148 -2.508473
v -4.416288 0.999675 -2.508473
v -4.411713 1.013507 -2.636301
v -4.411713 0.997127 -2.636301
v -4.395333 1.013507 -2.636301
v -4.395333 0.997127 -2.636301
v -4.390758 0.982714 -2.508473
v -4.390758 1.007510 -2.508473
v -4.412302 0.996545 2.675908
v -4.412302 1.014089 2.675908
v -4.429846 1.014089 2.675908
v -4.429846 0.996545 2.675908
v -4.433839 0.974148 2.548080
v -4.433839 0.999675 2.548080
v -4.429264 1.013507 2.420251
v -4.429264 0.997127 2.420251
v -4.412884 1.013507 2.420251
v -4.412884 0.997127 2.420251
v -4.408309 0.982714 2.548080
v -4.408309 1.007510 2.548080
v -2.380643 0.996545 4.386912
v -2.380643 1.014089 4.386912
v -2.380643 1.014089 4.404457
v -2.380643 0.996545 4.404457
v -2.508471 0.974148 4.408450
v -2.508471 0.999675 4.408450
v -2.636300 1.013507 4.403875
v -2.636300 0.997127 4.403875
v -2.636300 1.013507 4.387495
v -2.636300 0.997127 4.387495
v -2.508471 0.982714 4.382919
v -2.508471 1.007510 4.382919
v 2.675909 0.996545 4.386911
v 2.675909 1.014089 4.386911
v 2.675909 1.014089 4.404455
v 2.675909 0.996545 4.404455
v 2.548081 0.974148 4.408448
v 2.548081 0.999675 4.408448
v 2.420253 1.013507 4.403873
v 2.420253 0.997127 4.403873
v 2.420253 1.013507 4.387494
v 2.420253 0.997127 4.387494
v 2.548081 0.982714 4.382917
v 2.548081 1.007510 4.382917
v 4.329064 0.996545 2.380642
v 4.329064 1.014089 2.380642
v 4.346608 1.014089 2.380642
v 4.346608 0.996545 2.380642
v 4.350602 0.974148 2.508471
v 4.350602 0.999675 2.508471
v 4.346027 1.013507 2.636299
v 4.346027 0.997127 2.636299
v 4.329647 1.013507 2.636299
v 4.329647 0.997127 2.636299
v 4.325072 0.982714 2.508471
v 4.325072 1.007510 2.508471
v 4.343203 0.491805 -2.546350
v 4.343203 0.336213 -2.462789
v 4.343203 1.001813 -2.441965
v 4.343203 1.001813 -2.546350
v 4.343203 0.336213 -2.629911
v 4.343203 1.001813 -2.650735
v 2.510205 0.491805 -4.426442
v 2.593765 0.336213 -4.426442
v 2.614590 1.001813 -4.426442
v 2.510205 1.001813 -4.426442
v 2.426644 0.336213 -4.426442
v 2.405820 1.001813 -4.426442
v -2.546348 0.491805 -4.426442
v -2.462787 0.336213 -4.426441
v -2.441963 1.001813 -4.426441
v -2.546348 1.001813 -4.426442
v -2.629909 0.336213 -4.426442
v -2.650733 1.001813 -4.426442
v -4.408891 0.491805 -2.510205
v -4.408891 0.336213 -2.593765
v -4.408891 1.001813 -2.614590
v -4.408891 1.001813 -2.510205
v -4.408891 0.336213 -2.426644
v -4.408891 1.001813 -2.405819
v -4.426442 0.491805 2.546348
v -4.426442 0.336213 2.462787
v -4.426442 1.001813 2.441963
v -4.426442 1.001813 2.546348
v -4.426442 0.336213 2.629909
v -4.426442 1.001813 2.650733
v -2.510204 0.491805 4.401053
v -2.593765 0.336213 4.401053
v -2.614588 1.001813 4.401053
v -2.510204 1.001813 4.401053
v -2.426642 0.336213 4.401053
v -2.405818 1.001813 4.401053
v 2.546349 0.491805 4.401052
v 2.462788 0.336213 4.401052
v 2.441964 1.001813 4.401052
v 2.546349 1.001813 4.401052
v 2.629910 0.336213 4.401052
v 2.650734 1.001813 4.401052
v 4.343205 0.491805 2.510202
v 4.343205 0.336213 2.593763
v 4.343205 1.001813 2.614587
v 4.343205 1.001813 2.510202
v 4.343205 0.336213 2.426641
v 4.343205 1.001813 2.405817
vt 0.375000 0.000000
vt 0.625000 0.000000
vt 0.625000 0.250000
vt 0.375000 0.250000
vt 0.375000 0.375000
vt 0.625000 0.375000
vt 0.625000 0.500000
vt 0.375000 0.500000
vt 0.625000 0.750000
vt 0.375000 0.750000
vt 0.375000 0.875000
vt 0.625000 0.875000
vt 0.625000 1.000000
vt 0.375000 1.000000
vt 0.250000 0.500000
vt 0.250000 0.750000
vt 0.750000 0.500000
vt 0.875000 0.500000
vt 0.875000 0.750000
vt 0.750000 0.750000
vt 0.125000 0.500000
vt 0.125000 0.750000
vt 0.500000 0.000000
vt 1.000000 0.000000
vt 1.000000 1.000000
vt 0.500000 1.000000
vt 0.000000 0.000000
vt 0.000000 1.000000
vn -0.0000 -0.0000 -1.0000
vn 0.9994 -0.0000 0.0358
vn -0.0000 -0.0000 1.0000
vn -0.9995 -0.0000 -0.0312
vn -0.1982 -0.9698 0.1418
vn 0.1784 0.9807 0.0805
vn 0.1832 0.9801 -0.0760
vn -0.1932 -0.9715 -0.1377
vn -0.9994 -0.0000 0.0358
vn 0.9995 -0.0000 -0.0312
vn -1.0000 -0.0000 -0.0000
vn 0.0358 -0.0000 -0.9994
vn 1.0000 -0.0000 -0.0000
vn -0.0312 -0.0000 0.9995
vn 0.1418 -0.9698 0.1982
vn 0.0805 0.9807 -0.1784
vn -0.0760 0.9801 -0.1832
vn -0.1377 -0.9715 0.1932
vn 0.0358 -0.0000 0.9994
vn -0.0312 -0.0000 -0.9995
vn -0.9994 -0.0000 -0.0358
vn 0.9995 -0.0000 0.0312
vn 0.1982 -0.9698 -0.1418
vn -0.1784 0.9807 -0.0805
vn -0.1832 0.9801 0.0760
vn 0.1932 -0.9715 0.1377
vn 0.9994 -0.0000 -0.0358
vn -0.9995 -0.0000 0.0312
vn -0.0358 -0.0000 0.9994
vn 0.0312 -0.0000 -0.9995
vn -0.1418 -0.9698 -0.1982
vn -0.0805 0.9807 0.1784
vn 0.0760 0.9801 0.1832
vn 0.1377 -0.9715 -0.1932
vn -0.0358 -0.0000 -0.9994
vn 0.0312 -0.0000 0.9995
f 1/1/1 2/2/1 3/3/1 4/4/1
f 5/5/2 6/6/2 7/7/2 8/8/2
f 8/8/3 7/7/3 9/9/3 10/10/3
f 11/11/4 12/12/4 2/13/4 1/14/4
f 5/15/5 8/8/5 10/10/5 11/16/5
f 6/17/6 3/18/6 2/19/6 12/20/6
f 7/7/7 6/17/7 12/20/7 9/9/7
f 4/21/8 5/15/8 11/16/8 1/22/8
f 10/10/9 9/9/9 12/12/9 11/11/9
f 4/4/10 3/3/10 6/6/10 5/5/10
f 13/1/11 14/2/11 15/3/11 16/4/11
f 17/5/12 18/6/12 19/7/12 20/8/12
f 20/8/13 19/7/13 21/9/13 22/10/13
f 23/11/14 24/12/14 14/13/14 13/14/14
f 17/15/15 20/8/15 22/10/15 23/16/15
f 18/17/16 15/18/16 14/19/16 24/20/16
f 19/7/17 18/17/17 24/20/17 21/9/17
f 16/21/18 17/15/18 23/16/18 13/22/18
f 22/10/19 21/9/19 24/12/19 23/11/19
f 16/4/20 15/3/20 18/6/20 17/5/20
f 25/1/11 26/2/11 27/3/11 28/4/11
f 29/5/12 30/6/12 31/7/12 32/8/12
f 32/8/13 31/7/13 33/9/13 34/10/13
f 35/11/14 36/12/14 26/13/14 25/14/14
f 29/15/15 32/8/15 34/10/15 35/16/15
f 30/17/16 27/18/16 26/19/16 36/20/16
f 31/7/17 30/17/17 36/20/17 33/9/17
f 28/21/18 29/15/18 35/16/18 25/22/18
f 34/10/19 33/9/19 36/12/19 35/11/19
f 28/4/20 27/3/20 30/6/20 29/5/20
f 37/1/3 38/2/3 39/3/3 40/4/3
f 41/5/21 42/6/21 43/7/21 44/8/21
f 44/8/1 43/7/1 45/9/1 46/10/1
f 47/11/22 48/12/22 38/13/22 37/14/22
f 41/15/23 44/8/23 46/10/23 47/16/23
f 42/17/24 39/18/24 38/19/24 48/20/24
f 43/7/25 42/17/25 48/20/25 45/9/25
f 40/21/26 41/15/26 47/16/26 37/22/26
f 46/10/27 45/9/27 48/12/27 47/11/27
f 40/4/28 39/3/28 42/6/28 41/5/28
f 49/1/3 50/2/3 51/3/3 52/4/3
f 53/5/21 54/6/21 55/7/21 56/8/21
f 56/8/1 55/7/1 57/9/1 58/10/1
f 59/11/22 60/12/22 50/13/22 49/14/22
f 53/15/23 56/8/23 58/10/23 59/16/23
f 54/17/24 51/18/24 50/19/24 60/20/24
f 55/7/25 54/17/25 60/20/25 57/9/25
f 52/21/26 53/15/26 59/16/26 49/22/26
f 58/10/27 57/9/27 60/12/27 59/11/27
f 52/4/28 51/3/28 54/6/28 53/5/28
f 61/1/13 62/2/13 63/3/13 64/4/13
f 65/5/29 66/6/29 67/7/29 68/8/29
f 68/8/11 67/7/11 69/9/11 70/10/11
f 71/11/30 72/12/30 62/13/30 61/14/30
f 65/15/31 68/8/31 70/10/31 71/16/31
f 66/17/32 63/18/32 62/19/32 72/20/32
f 67/7/33 66/17/33 72/20/33 69/9/33
f 64/21/34 65/15/34 71/16/34 61/22/34
f 70/10/35 69/9/35 72/12/35 71/11/35
f 64/4/36 63/3/36 66/6/36 65/5/36
f 73/1/13 74/2/13 75/3/13 76/4/13
f 77/5/29 78/6/29 79/7/29 80/8/29
f 80/8/11 79/7/11 81/9/11 82/10/11
f 83/11/30 84/12/30 74/13/30 73/14/30
f 77/15/31 80/8/31 82/10/31 83/16/31
f 78/17/32 75/18/32 74/19/32 84/20/32
f 79/7/33 78/17/33 84/20/33 81/9/33
f 76/21/34 77/15/34 83/16/34 73/22/34
f 82/10/35 81/9/35 84/12/35 83/11/35
f 76/4/36 75/3/36 78/6/36 77/5/36
f 85/1/1 86/2/1 87/3/1 88/4/1
f 89/5/2 90/6/2 91/7/2 92/8/2
f 92/8/3 91/7/3 93/9/3 94/10/3
f 95/11/4 96/12/4 86/13/4 85/14/4
f 89/15/5 92/8/5 94/10/5 95/16/5
f 90/17/6 87/18/6 86/19/6 96/20/6
f 91/7/7 90/17/7 96/20/7 93/9/7
f 88/21/8 89/15/8 95/16/8 85/22/8
f 94/10/9 93/9/9 96/12/9 95/11/9
f 88/4/10 87/3/10 90/6/10 89/5/10
f 97/23/11 98/24/11 99/25/11 100/26/11
f 101/27/11 97/23/11 100/26/11 102/28/11
f 103/23/3 104/24/3 105/25/3 106/26/3
f 107/27/3 103/23/3 106/26/3 108/28/3
f 109/23/3 110/24/3 111/25/3 112/26/3
f 113/27/3 109/23/3 112/26/3 114/28/3
f 115/23/13 116/24/13 117/25/13 118/26/13
f 119/27/13 115/23/13 118/26/13 120/28/13
f 121/23/13 122/24/13 123/25/13 124/26/13
f 125/27/13 121/23/13 124/26/13 126/28/13
f 127/23/1 128/24/1 129/25/1 130/26/1
f 131/27/1 127/23/1 130/26/1 132/28/1
f 133/23/1 134/24/1 135/25/1 136/26/1
f 137/27/1 133/23/1 136/26/1 138/28/1
f 139/23/11 140/24/11 141/25/11 142/26/11
f 143/27/11 139/23/11 142/26/11 144/28/11
