o M_BFloor
v -4.492770 -0.173312 4.492770
v -4.492770 0.015276 4.492770
v -4.492770 0.015276 -4.492770
v -4.492770 -0.173312 -4.492770
v 4.492770 0.015276 -4.492770
v 4.492770 -0.173312 -4.492770
v 4.492770 0.015276 4.492770
v 4.492770 -0.173312 4.492770
v 2.920029 -0.181097 -2.920029
v 2.920029 0.023062 -2.920029
v -2.920029 0.023062 -2.920029
v -2.920029 -0.181097 -2.920029
v 2.920029 -0.181097 2.920029
v 2.920029 0.023062 2.920029
v -2.920029 -0.181097 2.920029
v -2.920029 0.023062 2.920029
vt 0.375000 0.000000
vt 0.625000 0.000000
vt 0.625000 0.250000
vt 0.375000 0.250000
vt 0.625000 0.500000
vt 0.375000 0.500000
vt 0.625000 0.750000
vt 0.375000 0.750000
vt 0.625000 1.000000
vt 0.375000 1.000000
vt 0.325046 0.549954
vt 0.674954 0.549954
vt 0.825046 0.549954
vt 0.174954 0.549954
vt 0.325046 0.700046
vt 0.674954 0.700046
vt 0.174954 0.700046
vt 0.125000 0.750000
vt 0.125000 0.500000
vt 0.825046 0.700046
vt 0.875000 0.500000
vt 0.875000 0.750000
vn -1.0000 -0.0000 -0.0000
vn -0.0000 -0.0000 -1.0000
vn 1.0000 -0.0000 -0.0000
vn -0.0000 -0.0000 1.0000
vn -0.0050 -1.0000 -0.0000
vn -0.0050 1.0000 -0.0000
vn -0.0000 -1.0000 -0.0050
vn -0.0000 1.0000 -0.0050
vn 0.0050 -1.0000 -0.0000
vn 0.0050 1.0000 -0.0000
vn -0.0000 -1.0000 0.0050
vn -0.0000 1.0000 0.0050
f 1/1/1 2/2/1 3/3/1 4/4/1
f 4/4/2 3/3/2 5/5/2 6/6/2
f 6/6/3 5/5/3 7/7/3 8/8/3
f 8/8/4 7/7/4 2/9/4 1/10/4
f 9/11/4 10/12/4 11/13/4 12/14/4
f 13/15/1 14/16/1 10/12/1 9/11/1
f 12/14/5 15/17/5 1/18/5 4/19/5
f 16/20/6 11/13/6 3/21/6 2/22/6
f 9/11/7 12/14/7 4/19/7 6/6/7
f 11/13/8 10/12/8 5/5/8 3/21/8
f 13/15/9 9/11/9 6/6/9 8/8/9
f 10/12/10 14/16/10 7/7/10 5/5/10
f 15/17/11 13/15/11 8/8/11 1/18/11
f 14/16/12 16/20/12 2/22/12 7/7/12
f 12/14/3 11/13/3 16/20/3 15/17/3
f 15/17/2 16/20/2 14/16/2 13/15/2
