o M_Corner_03.002
v -4.320911 -0.041214 4.773541
v -4.320911 2.085360 4.773541
v -4.796360 2.082117 4.773541
v -4.796360 -0.041214 4.773541
v -4.796360 2.016789 4.337490
v -4.796360 -0.041214 4.337490
v -4.320911 2.045495 4.308892
v -4.320911 -0.041214 4.337490
v -4.796360 2.127893 4.773541
v -4.796360 2.084234 4.337490
v -4.839025 2.083653 4.298362
v -4.839025 2.142646 4.812670
v -4.320911 2.149318 4.272652
v -4.558636 2.591984 4.555516
v -4.320911 2.215277 4.773541
v -4.278247 2.189504 4.812670
v -4.278248 2.175425 4.206934
v -4.839025 2.007307 4.298362
v -4.278247 2.044860 4.260950
v -4.839025 2.098595 4.812670
v -4.278247 2.053165 4.812670
vt 0.375000 0.000000
vt 0.625000 0.000000
vt 0.625000 0.250000
vt 0.375000 0.250000
vt 0.625000 0.500000
vt 0.375000 0.500000
vt 0.625000 0.750000
vt 0.375000 0.750000
vt 0.625000 1.000000
vt 0.375000 1.000000
vt 0.125000 0.500000
vt 0.125000 0.750000
vn -0.0000 -0.0000 1.0000
vn -1.0000 -0.0000 -0.0000
vn -0.0299 -0.0069 -0.9995
vn 1.0000 -0.0000 -0.0000
vn -0.0000 -1.0000 -0.0000
vn 0.1629 0.9809 -0.1060
vn -0.1814 0.4585 -0.8700
vn -0.0264 0.9970 -0.0721
vn 0.0707 -0.9908 0.1151
vn -0.1272 0.9822 0.1383
vn -0.0843 0.4587 0.8846
vn 0.8607 0.5047 -0.0665
vn -0.8974 0.4390 -0.0440
vn -0.0818 -0.2517 -0.9643
vn -0.0399 -0.9796 -0.1967
vn -0.3547 -0.9339 0.0443
vn -0.0806 -0.9835 0.1621
vn -0.1107 0.9656 0.2351
f 1/1/1 2/2/1 3/3/1 4/4/1
f 4/4/2 3/3/2 5/5/2 6/6/2
f 6/6/3 5/5/3 7/7/3 8/8/3
f 8/8/4 7/7/4 2/9/4 1/10/4
f 4/11/5 6/6/5 8/8/5 1/12/5
f 9/3/6 10/5/6 11/5/6 12/3/6
f 13/7/7 10/5/7 14/7/7
f 13/7/8 15/9/8 16/9/8 17/7/8
f 7/7/9 5/5/9 18/5/9 19/7/9
f 15/2/10 9/3/10 12/3/10 16/2/10
f 9/3/11 15/2/11 14/3/11
f 15/9/12 13/7/12 14/9/12
f 10/5/13 9/3/13 14/5/13
f 18/5/2 20/3/2 12/3/2 11/5/2
f 19/7/14 18/5/14 11/5/14 17/7/14
f 20/3/1 21/2/1 16/2/1 12/3/1
f 21/9/4 19/7/4 17/7/4 16/9/4
f 3/3/15 2/2/15 21/2/15 20/3/15
f 2/9/16 7/7/16 19/7/16 21/9/16
f 5/5/17 3/3/17 20/3/17 18/5/17
f 10/5/18 13/7/18 17/7/18 11/5/18
