o M_Wall_Foot
v 4.384388 -0.145204 4.375854
v 4.429920 0.320674 4.421385
v 4.443577 0.302749 4.817000
v 4.443577 -0.157468 4.811340
v -4.443577 -0.157468 4.811343
v -4.443577 0.302749 4.817003
v -4.429919 0.320674 4.421386
v -4.359006 -0.145204 4.375854
v -4.359007 -0.145204 -4.367540
v -4.429919 0.320674 -4.438453
v -4.443577 0.302749 -4.834069
v -4.443577 -0.157468 -4.828409
v 4.443577 -0.157468 -4.828408
v 4.443577 0.302749 -4.834069
v 4.429918 0.320674 -4.438453
v 4.384387 -0.145204 -4.367540
v -4.825535 0.302749 4.435043
v -4.819875 -0.157468 4.435043
v -4.819876 -0.157468 -4.452110
v -4.825535 0.302749 -4.452110
v 4.825533 0.302749 -4.452111
v 4.819873 -0.157468 -4.452111
v 4.819877 -0.157468 4.435044
v 4.825538 0.302749 4.435044
v 4.384387 -0.145204 -3.372538
v 4.429919 0.256473 -3.430200
v 4.825534 0.302749 -3.440750
v 4.819874 -0.157468 -3.440750
v 4.429920 0.320674 2.350922
v 4.384388 -0.145204 3.247291
v 4.384388 -0.145204 3.286263
v 4.446507 0.319922 3.317713
v 4.384388 -0.145204 3.325235
v 4.429920 0.320674 3.669342
v 4.429919 0.319937 0.664178
v 4.384387 -0.145204 0.667557
v 4.384387 -0.145204 0.703466
v 4.429920 0.293922 0.837334
v 4.384388 -0.145204 0.739375
v 4.429919 0.320674 1.160742
v 4.825537 0.302749 3.288731
v 4.825537 0.302749 3.327538
v 4.825537 0.302749 3.366344
v 4.825536 0.302749 0.666363
v 4.825536 0.302749 0.702273
v 4.825536 0.302749 0.738184
v 4.819876 -0.157468 0.738183
v 4.819875 -0.157468 0.702274
v 4.819875 -0.157468 0.666364
v 4.819877 -0.157468 3.366506
v 4.819877 -0.157468 3.327538
v 4.819877 -0.157468 3.288569
v 1.659839 0.302749 4.817001
v 1.701270 0.320674 4.421385
v 1.476640 0.263050 4.421385
v 1.481192 0.302749 4.817001
v 0.517931 0.320674 4.421386
v 1.302546 0.302749 4.817001
v 1.302546 -0.157468 4.811341
v 1.291277 -0.145204 4.375854
v 1.469923 -0.145204 4.375854
v 1.481192 -0.157468 4.811341
v 1.648570 -0.145204 4.375854
v 1.659839 -0.157468 4.811341
v -2.319372 0.302749 4.817002
v -1.941247 0.320674 4.421385
v -2.458146 0.280712 4.421386
v -2.462699 0.302749 4.817002
v -2.601474 0.320674 4.421386
v -2.606027 0.302749 4.817002
v -2.606027 -0.157468 4.811342
v -2.569376 -0.145204 4.375854
v -2.426049 -0.145204 4.375854
v -2.462699 -0.157468 4.811342
v -2.282721 -0.145204 4.375854
v -2.319372 -0.157468 4.811342
v -4.825536 0.302749 -2.221012
v -4.429919 0.320674 -1.501559
v -4.429920 0.357330 -2.641904
v -4.825536 0.302749 -2.650023
v -4.429919 0.320674 -3.635369
v -4.825536 0.302749 -3.079035
v -4.819876 -0.157468 -3.081158
v -4.359007 -0.145204 -3.025848
v -4.359007 -0.145204 -2.594604
v -4.819876 -0.157468 -2.650023
v -4.359006 -0.145204 -2.163360
v -4.819876 -0.157468 -2.218889
v -4.825535 0.302749 1.727816
v -4.429919 0.320674 1.723265
v -4.419901 0.254860 1.467158
v -4.825535 0.302749 1.472659
v -4.429919 0.320674 -0.109878
v -4.825535 0.302749 1.217501
v -4.819875 -0.157468 1.217323
v -4.359006 -0.145204 1.206053
v -4.359006 -0.145204 1.461390
v -4.819875 -0.157468 1.472659
v -4.359006 -0.145204 1.716727
v -4.819875 -0.157468 1.727996
v -1.722577 0.302749 -4.834069
v -2.215884 0.261607 -4.438452
v -1.571934 0.320674 -4.438452
v -1.481192 0.302749 -4.834069
v -1.235255 0.375775 -4.438452
v -1.239808 0.302749 -4.834069
v -1.239808 -0.157468 -4.828408
v -1.203158 -0.090102 -4.367540
v -1.444542 -0.145204 -4.367540
v -1.481192 -0.157468 -4.828408
v -1.685927 -0.145204 -4.367540
v -1.722577 -0.157468 -4.828408
v 1.276303 0.302749 -4.834069
v 1.279318 0.267718 -4.438453
v 1.555269 0.296856 -4.438453
v 1.480325 0.302749 -4.834069
v 1.992213 0.263699 -4.438452
v 1.684347 0.302749 -4.834069
v 1.684347 -0.157468 -4.828409
v 1.673077 -0.209480 -4.367540
v 1.471650 -0.144013 -4.367540
v 1.480299 -0.157468 -4.828409
v 1.272667 -0.141138 -4.367540
v 1.276251 -0.157468 -4.828409
vt 0.375000 0.000000
vt 0.625000 0.000000
vt 0.625000 0.250000
vt 0.375000 0.250000
vt 0.375000 0.500000
vt 0.625000 0.500000
vt 0.624999 0.749999
vt 0.375000 0.750000
vt 0.375000 0.500000
vt 0.625000 0.500000
vt 0.625001 0.750001
vt 0.375000 0.750000
vt 0.374999 0.000000
vt 0.375000 0.250000
vt 0.375000 0.500000
vt 0.625000 0.750000
vt 0.374999 0.749999
vt 0.375000 0.500000
vt 0.625000 0.750000
vt 0.375000 0.750000
vt 0.375000 0.971550
vt 0.625000 0.971550
vt 0.625000 1.000000
vt 0.375000 1.000000
vt 0.846550 0.500000
vt 0.875000 0.500000
vt 0.875000 0.750000
vt 0.846550 0.750000
vt 0.125000 0.500000
vt 0.153450 0.500000
vt 0.153450 0.750000
vt 0.125000 0.750000
vt 0.625000 0.278450
vt 0.375000 0.278450
vt 0.625000 0.808423
vt 0.375000 0.782269
vt 0.375000 0.781155
vt 0.624601 0.781141
vt 0.375000 0.780040
vt 0.625000 0.771221
vt 0.625000 0.856018
vt 0.375000 0.856031
vt 0.375000 0.855005
vt 0.625000 0.851132
vt 0.375000 0.853978
vt 0.625000 0.842006
vt 0.657247 0.500000
vt 0.683423 0.750000
vt 0.656155 0.739518
vt 0.656155 0.500000
vt 0.646220 0.750000
vt 0.655063 0.500000
vt 0.731014 0.500000
vt 0.731019 0.750001
vt 0.726132 0.750000
vt 0.730005 0.500000
vt 0.717007 0.750000
vt 0.728994 0.500000
vt 0.271006 0.499999
vt 0.271022 0.750000
vt 0.269995 0.750000
vt 0.269995 0.500000
vt 0.268969 0.750000
vt 0.268985 0.500000
vt 0.344941 0.500000
vt 0.344960 0.750000
vt 0.343845 0.750000
vt 0.343845 0.500000
vt 0.342731 0.750000
vt 0.342749 0.500000
vt 0.625000 0.396006
vt 0.374999 0.396004
vt 0.375000 0.394995
vt 0.625000 0.394995
vt 0.375000 0.393985
vt 0.625000 0.393985
vt 0.625000 0.469937
vt 0.375000 0.469941
vt 0.375000 0.468845
vt 0.625000 0.468845
vt 0.375000 0.467749
vt 0.625000 0.467754
vt 0.796692 0.500000
vt 0.798004 0.750000
vt 0.791666 0.750000
vt 0.791667 0.500000
vt 0.764614 0.750000
vt 0.786641 0.500000
vt 0.213359 0.500000
vt 0.213442 0.750001
vt 0.208333 0.750000
vt 0.208333 0.500000
vt 0.203225 0.750000
vt 0.203308 0.500000
vt 0.625000 0.923005
vt 0.375000 0.921775
vt 0.375000 0.916667
vt 0.625000 0.916666
vt 0.375000 0.911559
vt 0.625001 0.889615
vt 0.625000 0.338359
vt 0.375000 0.338359
vt 0.375000 0.333333
vt 0.625000 0.333333
vt 0.375000 0.328308
vt 0.625000 0.328308
vt 0.875000 0.750000
vt 0.712365 0.500000
vt 0.719266 0.750000
vt 0.708333 0.750000
vt 0.708333 0.500000
vt 0.704289 0.750000
vt 0.704301 0.500000
vt 0.295699 0.500000
vt 0.295764 0.749999
vt 0.291667 0.750000
vt 0.291667 0.500000
vt 0.287569 0.750001
vt 0.287635 0.500000
vt 0.625000 0.844266
vt 0.375000 0.837431
vt 0.375000 0.833333
vt 0.624999 0.833333
vt 0.375000 0.829235
vt 0.625001 0.829290
vt 0.625000 0.420699
vt 0.375000 0.420699
vt 0.375000 0.416667
vt 0.625000 0.416667
vt 0.375000 0.412635
vt 0.625000 0.412635
vt 0.687762 0.500000
vt 0.707871 0.750000
vt 0.675694 0.750000
vt 0.675694 0.500000
vt 0.647661 0.750000
vt 0.663625 0.500000
vt 0.336434 0.500000
vt 0.336637 0.750000
vt 0.324306 0.749999
vt 0.324306 0.500000
vt 0.311976 0.749999
vt 0.312178 0.500000
vt 0.625000 0.832871
vt 0.375000 0.813024
vt 0.375000 0.800693
vt 0.625000 0.800693
vt 0.375000 0.788362
vt 0.625000 0.772660
vt 0.625000 0.461375
vt 0.375000 0.461434
vt 0.375000 0.449306
vt 0.625000 0.449306
vt 0.375000 0.437178
vt 0.625000 0.437238
vt 0.798844 0.500000
vt 0.798867 0.750000
vt 0.791509 0.495017
vt 0.791667 0.500000
vt 0.747141 0.750000
vt 0.784489 0.500000
vt 0.215516 0.500000
vt 0.215634 0.750000
vt 0.208333 0.750000
vt 0.208333 0.500000
vt 0.201032 0.750000
vt 0.201151 0.500000
vt 0.625000 0.923866
vt 0.375000 0.923967
vt 0.375000 0.916666
vt 0.589682 0.916666
vt 0.375000 0.909366
vt 0.625000 0.872140
vt 0.625000 0.340511
vt 0.375000 0.340516
vt 0.375000 0.333333
vt 0.375000 0.326151
vt 0.625000 0.326156
vt 0.624999 0.999999
vt 0.875000 0.750000
vt 0.798457 0.500000
vt 0.812526 0.750000
vt 0.793250 0.750128
vt 0.784855 0.750000
vt 0.784876 0.500000
vt 0.215124 0.500000
vt 0.215235 0.750000
vt 0.208333 0.750001
vt 0.208333 0.500000
vt 0.201432 0.750001
vt 0.201543 0.500000
vt 0.625000 0.937526
vt 0.375000 0.923568
vt 0.375000 0.916667
vt 0.624999 0.919355
vt 0.375000 0.909765
vt 0.625000 0.909855
vt 0.625000 0.340124
vt 0.375000 0.340124
vt 0.375000 0.326543
vt 0.625000 0.326543
vt 0.125000 0.500000
vt 0.125000 0.750000
vt 0.625000 1.000000
vt 0.375000 0.999999
vt 0.714097 0.500000
vt 0.713901 0.750000
vt 0.706144 0.750000
vt 0.708333 0.500000
vt 0.693785 0.750000
vt 0.702618 0.500000
vt 0.297381 0.500000
vt 0.297475 0.750000
vt 0.291667 0.750000
vt 0.291667 0.500000
vt 0.286027 0.750000
vt 0.285901 0.500000
vt 0.625000 0.838901
vt 0.375000 0.838974
vt 0.375624 0.833334
vt 0.614163 0.831130
vt 0.375000 0.827525
vt 0.625000 0.818785
vt 0.625000 0.422382
vt 0.375000 0.422382
vt 0.375000 0.416667
vt 0.625000 0.416667
vt 0.375000 0.410902
vt 0.625000 0.410903
vn 0.9951 -0.0440 -0.0888
vn -0.9904 -0.0692 -0.1196
vn -0.9910 -0.0663 0.1160
vn 0.9954 -0.0418 0.0861
vn 0.0861 -0.0418 0.9954
vn 0.1160 -0.0663 -0.9910
vn -0.1196 -0.0692 -0.9904
vn -0.0888 -0.0440 0.9951
vn -0.9945 0.1049 0.0034
vn -0.0348 0.9989 0.0318
vn -0.0282 -0.9996 -0.0000
vn 0.9999 -0.0123 -0.0000
vn -0.9914 0.1299 0.0164
vn -0.9904 0.1316 -0.0423
vn -0.9951 0.0984 0.0123
vn -0.9945 0.1049 -0.0078
vn 0.0453 0.9990 -0.0000
vn 0.0312 0.9919 0.1234
vn -0.0408 0.9964 -0.0742
vn -0.0368 0.9993 -0.0077
vn -0.9953 0.0973 -0.0000
vn -0.9945 0.1044 -0.0008
vn -0.1414 0.9894 -0.0338
vn 0.0504 0.9957 -0.0777
vn -0.0000 -0.9996 -0.0282
vn -0.0149 0.1046 -0.9944
vn 0.0055 0.1084 -0.9941
vn -0.0000 -0.0123 0.9999
vn -0.0000 0.9990 0.0453
vn -0.0000 0.0973 -0.9953
vn -0.0604 0.9976 -0.0344
vn 0.1381 0.9904 -0.0036
vn -0.0063 0.1037 -0.9946
vn 0.0143 0.1026 -0.9946
vn -0.1124 0.9934 0.0232
vn -0.1088 0.9937 -0.0256
vn 0.0266 -0.9996 -0.0000
vn 0.9897 0.1428 0.0033
vn 0.9898 0.1425 -0.0037
vn -0.9999 -0.0123 -0.0000
vn 0.9886 0.1505 -0.0000
vn -0.0453 0.9990 -0.0000
vn 0.0355 0.9913 -0.1269
vn 0.0958 0.9948 0.0352
vn -0.0666 0.9976 -0.0199
vn -0.0942 0.9878 -0.1238
vn 0.1131 -0.9906 0.0766
vn -0.0000 -0.9996 0.0266
vn -0.0102 0.1529 0.9882
vn -0.0278 0.1458 0.9889
vn -0.0000 -0.0123 -0.9999
vn 0.0120 0.9993 0.0366
vn 0.0020 0.1617 0.9868
vn -0.0605 0.9965 0.0575
vn 0.0516 0.9982 0.0317
vn -0.1592 -0.9862 -0.0447
vn -0.0071 -0.9995 0.0322
vn -0.0092 0.1656 0.9862
vn 0.0222 0.1437 0.9894
vn 0.0117 -0.9990 -0.0422
vn -0.0102 -0.9958 0.0908
vn -0.0110 0.9995 0.0308
vn 0.0214 0.9986 -0.0482
vn -0.0035 0.1507 0.9886
vn 0.0051 0.1602 0.9871
f 1/1/1 2/2/1 3/3/1 4/4/1
f 5/5/2 6/6/2 7/7/2 8/8/2
f 9/1/3 10/2/3 11/3/3 12/4/3
f 13/9/4 14/10/4 15/11/4 16/12/4
f 8/13/5 7/2/5 17/3/5 18/14/5
f 19/15/6 20/6/6 10/16/6 9/17/6
f 16/1/7 15/2/7 21/3/7 22/4/7
f 23/18/8 24/6/8 2/19/8 1/20/8
f 25/21/9 26/22/9 15/23/9 16/24/9
f 27/25/10 21/26/10 15/27/10 26/28/10
f 22/29/11 28/30/11 25/31/11 16/32/11
f 22/4/12 21/3/12 27/33/12 28/34/12
f 29/35/13 30/36/13 31/37/13 32/38/13
f 32/38/14 31/37/14 33/39/14 34/40/14
f 35/41/15 36/42/15 37/43/15 38/44/15
f 38/44/16 37/43/16 39/45/16 40/46/16
f 41/47/17 29/48/17 32/49/17 42/50/17
f 42/50/17 32/49/17 34/51/17 43/52/17
f 44/53/18 35/54/18 38/55/18 45/56/18
f 45/56/19 38/55/19 40/57/19 46/58/19
f 47/59/11 39/60/11 37/61/11 48/62/11
f 48/62/11 37/61/11 36/63/11 49/64/11
f 50/65/11 33/66/11 31/67/11 51/68/11
f 51/68/11 31/67/11 30/69/11 52/70/11
f 46/71/12 47/72/12 48/73/12 45/74/12
f 45/74/12 48/73/12 49/75/12 44/76/12
f 43/77/12 50/78/12 51/79/12 42/80/12
f 42/80/12 51/79/12 52/81/12 41/82/12
f 28/34/12 27/33/12 44/76/12 49/75/12
f 44/53/20 27/25/20 26/28/20 35/54/20
f 47/72/12 46/71/12 41/82/12 52/81/12
f 41/47/17 46/58/17 40/57/17 29/48/17
f 24/6/17 43/52/17 34/51/17 2/19/17
f 50/78/12 43/77/12 24/6/12 23/18/12
f 28/30/11 49/64/11 36/63/11 25/31/11
f 30/36/21 29/35/21 40/46/21 39/45/21
f 36/42/22 35/41/22 26/22/22 25/21/22
f 47/59/11 52/70/11 30/69/11 39/60/11
f 1/20/21 2/19/21 34/40/21 33/39/21
f 50/65/11 23/18/11 1/20/11 33/66/11
f 53/83/23 54/84/23 55/85/23 56/86/23
f 56/86/24 55/85/24 57/87/24 58/88/24
f 59/89/25 60/90/25 61/91/25 62/92/25
f 62/92/25 61/91/25 63/93/25 64/94/25
f 54/95/26 63/96/26 61/97/26 55/98/26
f 55/98/27 61/97/27 60/99/27 57/100/27
f 58/101/28 59/102/28 62/103/28 56/104/28
f 56/104/28 62/103/28 64/105/28 53/106/28
f 4/4/28 3/3/28 53/106/28 64/105/28
f 4/29/25 64/94/25 63/93/25 1/32/25
f 53/83/29 3/26/29 2/107/29 54/84/29
f 63/96/30 54/95/30 2/23/30 1/24/30
f 65/108/31 66/109/31 67/110/31 68/111/31
f 68/111/32 67/110/32 69/112/32 70/113/32
f 71/114/25 72/115/25 73/116/25 74/117/25
f 74/117/25 73/116/25 75/118/25 76/119/25
f 66/120/33 75/121/33 73/122/33 67/123/33
f 67/123/34 73/122/34 72/124/34 69/125/34
f 70/126/28 71/127/28 74/128/28 68/129/28
f 68/129/28 74/128/28 76/130/28 65/131/28
f 71/114/25 5/5/25 8/8/25 72/115/25
f 59/89/25 76/119/25 75/118/25 60/90/25
f 71/127/28 70/126/28 6/6/28 5/5/28
f 59/102/28 58/101/28 65/131/28 76/130/28
f 6/6/29 70/113/29 69/112/29 7/7/29
f 65/108/29 58/88/29 57/87/29 66/109/29
f 8/8/30 7/7/30 69/125/30 72/124/30
f 75/121/30 66/120/30 57/100/30 60/99/30
f 77/132/35 78/133/35 79/134/35 80/135/35
f 80/135/36 79/134/36 81/136/36 82/137/36
f 83/138/37 84/139/37 85/140/37 86/141/37
f 86/141/37 85/140/37 87/142/37 88/143/37
f 78/144/38 87/145/38 85/146/38 79/147/38
f 79/147/39 85/146/39 84/148/39 81/149/39
f 82/150/40 83/151/40 86/152/40 80/153/40
f 80/153/40 86/152/40 88/154/40 77/155/40
f 9/17/41 10/16/41 81/149/41 84/148/41
f 83/138/37 19/15/37 9/17/37 84/139/37
f 83/151/40 82/150/40 20/6/40 19/15/40
f 20/6/42 82/137/42 81/136/42 10/16/42
f 89/156/43 90/157/43 91/158/43 92/159/43
f 92/159/44 91/158/44 93/160/44 94/161/44
f 95/162/37 96/163/37 97/164/37 98/165/37
f 98/165/37 97/164/37 99/166/37 100/167/37
f 90/168/41 99/169/41 97/170/41 91/171/41
f 91/171/41 97/170/41 96/172/41 93/173/41
f 94/174/40 95/175/40 98/176/40 92/104/40
f 92/104/40 98/176/40 100/177/40 89/178/40
f 18/29/37 100/167/37 99/166/37 8/32/37
f 95/162/37 88/143/37 87/142/37 96/163/37
f 99/169/41 90/168/41 7/179/41 8/24/41
f 87/145/41 78/144/41 93/173/41 96/172/41
f 18/14/40 17/3/40 89/178/40 100/177/40
f 95/175/40 94/174/40 77/155/40 88/154/40
f 89/156/42 17/26/42 7/180/42 90/157/42
f 77/132/42 94/161/42 93/160/42 78/133/42
f 101/181/45 102/182/45 103/183/45 104/159/45
f 104/159/46 103/183/46 105/184/46 106/185/46
f 107/186/47 108/187/47 109/188/47 110/189/47
f 110/189/48 109/188/48 111/190/48 112/191/48
f 102/192/49 111/193/49 109/194/49 103/195/49
f 103/195/50 109/194/50 108/196/50 105/197/50
f 106/198/51 107/199/51 110/103/51 104/104/51
f 104/104/51 110/103/51 112/200/51 101/201/51
f 12/4/51 11/3/51 101/201/51 112/200/51
f 12/202/48 112/191/48 111/190/48 9/203/48
f 101/181/52 11/26/52 10/180/52 102/182/52
f 111/193/53 102/192/53 10/204/53 9/205/53
f 113/206/54 114/207/54 115/208/54 116/209/54
f 116/209/55 115/208/55 117/210/55 118/211/55
f 119/212/56 120/213/56 121/214/56 122/215/56
f 122/215/57 121/214/57 123/216/57 124/217/57
f 114/218/58 123/219/58 121/220/58 115/221/58
f 115/221/59 121/220/59 120/222/59 117/223/59
f 118/224/51 119/225/51 122/226/51 116/227/51
f 116/227/51 122/226/51 124/228/51 113/229/51
f 119/212/60 13/9/60 16/12/60 120/213/60
f 107/186/61 124/217/61 123/216/61 108/187/61
f 119/225/51 118/224/51 14/10/51 13/9/51
f 107/199/51 106/198/51 113/229/51 124/228/51
f 14/10/62 118/211/62 117/210/62 15/11/62
f 113/206/63 106/185/63 105/184/63 114/207/63
f 16/12/64 15/11/64 117/223/64 120/222/64
f 123/219/65 114/218/65 105/197/65 108/196/65
